<svg width="30" height="30" viewBox="0 0 30 30" fill="none" xmlns="http://www.w3.org/2000/svg">
<path d="M4.375 25C3.16667 25 2.13542 24.5729 1.28125 23.7188C0.427083 22.8646 0 21.8333 0 20.625V4.375C0 3.16667 0.427083 2.13542 1.28125 1.28125C2.13542 0.427083 3.16667 0 4.375 0H20V18.75C19.4792 18.75 19.0365 18.9323 18.6719 19.2969C18.3073 19.6615 18.125 20.1042 18.125 20.625C18.125 21.1458 18.3073 21.5885 18.6719 21.9531C19.0365 22.3177 19.4792 22.5 20 22.5V25H4.375ZM2.5 16.6562C2.79167 16.5104 3.09375 16.4062 3.40625 16.3438C3.71875 16.2812 4.04167 16.25 4.375 16.25H5V2.5H4.375C3.85417 2.5 3.41146 2.68229 3.04688 3.04688C2.68229 3.41146 2.5 3.85417 2.5 4.375V16.6562ZM7.5 16.25H17.5V2.5H7.5V16.25ZM4.375 22.5H16.0312C15.9062 22.2083 15.8073 21.9115 15.7344 21.6094C15.6615 21.3073 15.625 20.9792 15.625 20.625C15.625 20.2917 15.6562 19.9688 15.7188 19.6562C15.7812 19.3438 15.8854 19.0417 16.0312 18.75H4.375C3.83333 18.75 3.38542 18.9323 3.03125 19.2969C2.67708 19.6615 2.5 20.1042 2.5 20.625C2.5 21.1667 2.67708 21.6146 3.03125 21.9688C3.38542 22.3229 3.83333 22.5 4.375 22.5Z" fill="#1F1F1F"/>
</svg>
